<?xml version="1.0" standalone="no"?>
<!DOCTYPE svg PUBLIC "-//W3C//DTD SVG 20010904//EN"
 "http://www.w3.org/TR/2001/REC-SVG-20010904/DTD/svg10.dtd">
<svg version="1.0" xmlns="http://www.w3.org/2000/svg"
 width="2000.000000pt" height="2250.000000pt" viewBox="0 0 2000.000000 2250.000000"
 preserveAspectRatio="xMidYMid meet">

<g transform="translate(0.000000,2250.000000) scale(0.100000,-0.100000)"
fill="#ffffff" stroke="none">
<path d="M9640 21399 c-756 -281 -915 -345 -1199 -489 -187 -94 -388 -215
-510 -307 l-74 -56 7 94 c4 52 11 128 14 169 13 141 -6 190 -72 190 -57 0
-114 -41 -292 -211 -291 -278 -414 -374 -520 -405 -47 -14 -61 -13 -141 2
-116 22 -297 15 -403 -16 -303 -87 -593 -331 -743 -625 -22 -44 -51 -109 -63
-145 -27 -76 -28 -77 -184 -86 -75 -4 -163 0 -307 15 -408 42 -479 27 -696
-155 -370 -310 -990 -901 -1505 -1432 -297 -308 -292 -300 -392 -596 -77 -228
-128 -326 -237 -457 -115 -138 -393 -415 -683 -681 -584 -534 -825 -834 -1019
-1264 -203 -452 -310 -896 -461 -1914 -60 -404 -116 -748 -143 -880 l-13 -65
54 -100 c111 -206 310 -616 386 -793 186 -437 323 -884 401 -1307 39 -209 42
-272 17 -322 -33 -63 -107 -87 -196 -62 -31 8 -41 8 -48 -3 -5 -7 -7 -121 -4
-273 5 -271 17 -381 57 -511 30 -101 198 -491 543 -1267 496 -1115 638 -1463
831 -2037 l82 -245 44 -5 c125 -16 268 -155 317 -310 7 -19 23 -96 36 -170
149 -806 546 -1343 1121 -1516 88 -26 98 -27 445 -34 277 -6 372 -11 434 -24
162 -35 289 -98 406 -201 270 -238 716 -391 1084 -373 l101 5 205 -107 c113
-59 356 -185 540 -280 428 -221 779 -423 918 -527 30 -22 41 -25 95 -21 57 4
63 7 99 48 27 30 42 40 49 33 20 -20 28 -89 22 -195 -6 -105 -6 -108 15 -108
12 0 131 13 264 30 591 72 913 94 1388 94 306 0 434 -4 570 -17 290 -30 563
-81 797 -149 l72 -21 93 27 c135 40 305 46 448 16 177 -36 375 -121 620 -264
58 -33 114 -62 125 -63 199 -18 212 -17 239 10 35 35 34 70 -9 169 -12 30 167
110 352 157 136 35 470 101 509 101 63 0 115 -40 212 -162 120 -153 166 -192
253 -216 l36 -10 0 167 c-1 149 2 172 22 223 13 33 36 69 56 86 59 52 89 57
322 55 l212 -2 -6 153 c-9 221 -2 239 137 376 58 58 201 209 317 335 116 127
247 262 292 300 87 75 258 194 278 195 6 0 80 -75 165 -166 l153 -167 9 30
c13 46 -16 167 -62 266 -31 66 -59 105 -136 188 -101 110 -131 157 -121 189 9
27 16 30 216 96 142 47 190 58 262 62 105 5 150 -9 247 -76 61 -44 63 -45 42
-15 -35 49 -62 115 -62 152 0 46 64 108 145 140 52 20 84 24 250 30 185 7 191
8 243 36 30 16 65 43 79 60 61 71 113 234 113 353 0 47 3 50 246 342 292 350
430 532 620 816 351 524 652 1092 931 1758 93 222 204 508 199 513 -6 6 -159
-113 -260 -202 -161 -144 -338 -354 -456 -545 -58 -93 -120 -164 -162 -186
-32 -17 -111 -18 -141 -3 -12 6 -32 21 -44 32 -18 16 -23 17 -27 6 -3 -8 -33
-104 -67 -214 -34 -110 -65 -207 -70 -215 -11 -20 -11 1 5 190 7 85 12 156 11
157 0 1 -80 -59 -176 -134 -1266 -992 -2423 -1831 -3382 -2451 -283 -184 -349
-215 -453 -216 -112 -1 -157 33 -259 197 -8 14 -28 0 -128 -87 -65 -57 -133
-111 -151 -120 -38 -18 -88 -21 -115 -6 -38 20 -55 110 -38 192 l8 37 -38 -11
c-27 -7 -66 -7 -139 2 -158 20 -189 3 -246 -135 -29 -69 -37 -80 -58 -80 -20
0 -31 12 -60 64 -38 70 -65 95 -79 73 -4 -7 -18 -83 -31 -170 -25 -171 -38
-224 -39 -157 -1 52 -18 110 -36 125 -45 37 -155 -70 -185 -180 -6 -22 -16 -9
-99 113 -51 76 -126 172 -167 215 l-74 77 25 -55 c32 -74 55 -164 55 -221 0
-79 -37 -87 -94 -18 -32 37 -31 39 -46 -121 -6 -69 -12 -125 -13 -125 -24 0
-108 -65 -202 -156 -143 -136 -128 -131 -405 -154 -330 -28 -664 -83 -939
-156 l-114 -30 -206 50 c-729 178 -1502 299 -2236 351 -596 42 -1068 196
-1644 535 -132 78 -155 95 -126 95 29 0 110 47 154 90 55 53 85 120 84 186 0
75 -9 81 -46 32 -49 -66 -131 -101 -329 -141 l-166 -34 -44 44 c-107 111 -678
651 -1148 1088 -1082 1004 -1613 1533 -2066 2057 -205 238 -328 472 -579 1108
-113 285 -159 395 -218 522 l-45 97 -50 -50 c-43 -43 -54 -49 -91 -49 -59 0
-107 46 -157 152 -33 70 -39 93 -39 148 0 76 22 122 76 158 42 29 92 24 147
-13 20 -14 38 -21 40 -16 2 5 -43 328 -98 718 -56 389 -102 737 -102 773 1
122 28 201 152 450 43 86 85 180 94 210 10 32 74 576 151 1280 74 674 144
1277 155 1340 186 1049 611 1894 1398 2785 297 335 1507 1486 1734 1648 51 37
163 108 248 158 85 50 376 222 645 381 270 160 584 344 699 410 993 567 1747
816 2681 884 55 4 300 8 545 8 432 1 447 2 511 24 121 40 191 111 231 231 20
60 22 85 21 284 -1 121 -4 221 -6 224 -3 2 -16 -1 -29 -8 -12 -7 -55 -13 -93
-13 -96 -1 -170 36 -326 165 -66 54 -141 111 -166 126 -40 23 -145 66 -193 78
-8 3 -112 -32 -230 -76z m-7966 -12947 c34 -31 94 -146 166 -317 89 -211 149
-333 195 -396 19 -27 30 -49 24 -49 -29 0 -161 74 -207 115 -69 62 -99 128
-111 240 -13 126 -47 216 -137 366 -39 66 -40 66 -16 71 22 5 62 -9 86 -30z
m-271 -10 c16 -18 140 -407 135 -423 -2 -5 -48 48 -103 117 -55 70 -115 142
-132 161 -18 19 -33 43 -33 54 0 32 28 77 58 93 36 20 56 20 75 -2z"/>
<path d="M12995 20818 c-276 -8 -304 -11 -345 -30 -63 -31 -127 -99 -161 -173
l-30 -64 -32 19 c-75 45 -147 53 -382 46 -130 -4 -240 -12 -270 -20 -128 -34
-225 -112 -278 -224 -27 -57 -32 -80 -35 -157 -6 -156 38 -243 196 -397 290
-281 749 -454 1261 -475 l154 -6 221 -127 c689 -395 1262 -777 2486 -1656 739
-531 958 -684 1003 -700 100 -35 205 -12 422 95 88 44 169 81 180 83 19 3 20
-2 17 -111 -6 -221 31 -453 108 -674 87 -251 203 -530 251 -601 63 -95 182
-208 311 -294 250 -168 373 -379 394 -677 10 -145 -10 -284 -77 -520 -12 -40
-10 -44 75 -213 142 -285 284 -507 437 -687 101 -119 228 -241 299 -288 97
-64 102 -75 110 -219 7 -131 19 -170 67 -214 53 -49 131 -18 203 81 33 45 35
46 38 22 2 -14 -13 -162 -32 -329 -48 -409 -61 -646 -47 -830 10 -136 39 -324
47 -315 3 2 11 85 20 183 64 754 177 1344 348 1818 19 55 34 102 31 104 -7 7
-89 -45 -116 -75 -15 -15 -46 -60 -70 -98 -74 -120 -114 -158 -176 -169 l-33
-5 0 242 c0 500 -30 850 -160 1867 -32 256 -63 497 -67 535 l-9 70 -1022 1636
c-992 1586 -1025 1639 -1136 1765 -538 614 -1250 1104 -2086 1437 -404 160
-834 286 -1100 322 -263 35 -463 39 -1015 23z"/>
<path d="M7525 10768 c-3 -7 -4 -269 -3 -583 l3 -570 43 -3 42 -3 0 185 c0
102 3 187 8 189 4 3 33 8 64 11 l58 7 127 -195 128 -195 49 -1 c38 0 47 3 43
15 -3 7 -67 107 -141 220 -75 114 -136 209 -136 212 0 3 40 58 88 122 94 123
169 231 178 256 5 12 -3 15 -43 15 l-50 0 -48 -72 c-96 -146 -200 -288 -215
-292 -8 -2 -36 -7 -62 -11 l-48 -6 0 355 0 356 -40 0 c-23 0 -43 -5 -45 -12z"/>
<path d="M14588 10773 c-37 -4 -38 -5 -38 -44 l0 -39 105 0 105 0 0 -495 0
-495 -110 0 -110 0 0 -45 0 -45 260 0 260 0 0 45 0 45 -105 0 -105 0 0 540 0
540 -112 -2 c-62 -1 -130 -3 -150 -5z"/>
<path d="M15890 10594 c0 -173 -1 -186 -17 -179 -94 37 -218 49 -298 27 -61
-17 -130 -66 -170 -119 -55 -75 -79 -167 -79 -298 0 -230 87 -377 246 -415 77
-19 156 -8 240 34 40 20 76 36 79 36 4 0 9 -18 13 -40 6 -37 9 -40 39 -40 53
0 57 7 47 85 -5 39 -9 301 -10 583 l0 512 -45 0 -45 0 0 -186z m-159 -234 c30
-6 78 -17 107 -26 l52 -17 0 -263 0 -263 -32 -24 c-73 -55 -119 -71 -199 -72
-66 0 -81 3 -117 27 -82 55 -129 190 -118 343 6 100 27 161 73 214 44 52 91
76 174 90 4 1 31 -4 60 -9z"/>
<path d="M4000 10184 l0 -575 48 3 47 3 3 232 2 233 213 2 212 3 3 43 3 42
-215 0 -216 0 0 250 0 250 250 0 250 0 0 45 0 45 -300 0 -300 0 0 -576z"/>
<path d="M9190 10186 l0 -576 45 0 45 0 0 447 c0 269 4 443 9 438 5 -6 49
-112 97 -237 l87 -228 68 0 c44 0 68 4 72 13 2 6 42 109 87 227 46 118 87 219
91 225 5 5 9 -188 9 -438 l0 -447 45 0 45 0 0 576 0 575 -46 -3 -46 -3 -121
-317 c-86 -223 -126 -318 -137 -318 -10 0 -52 97 -136 318 l-121 317 -47 3
-46 3 0 -575z"/>
<path d="M10960 10186 l0 -576 103 0 c186 1 303 16 371 48 68 32 128 88 157
144 51 99 75 311 59 513 -21 251 -87 364 -245 420 -39 14 -92 19 -247 23
l-198 4 0 -576z m391 468 c40 -12 66 -28 101 -64 70 -73 89 -142 95 -350 8
-249 -21 -384 -97 -460 -54 -54 -112 -71 -262 -77 l-128 -6 0 487 0 486 118 0
c79 0 136 -5 173 -16z"/>
<path d="M5431 10449 c-61 -12 -166 -47 -225 -75 -28 -13 -53 -24 -58 -24 -4
0 -8 23 -8 50 l0 50 -125 0 -125 0 0 -45 0 -45 80 0 80 0 0 -330 0 -330 -80 0
-80 0 0 -45 0 -45 268 2 267 3 3 43 3 42 -140 0 -141 0 0 281 0 280 46 20 c52
23 225 69 260 69 22 0 24 4 24 55 0 30 -1 55 -2 54 -2 -1 -23 -5 -47 -10z"/>
<path d="M5970 10454 c-47 -6 -203 -43 -219 -53 -20 -13 7 -94 28 -86 61 24
178 47 251 48 141 2 187 -40 199 -183 l7 -80 -163 2 -163 2 -67 -35 c-89 -45
-126 -101 -131 -198 -6 -94 11 -144 63 -196 95 -96 250 -100 399 -10 32 19 60
35 61 35 2 0 6 -23 10 -51 l7 -51 41 6 c23 4 42 8 42 9 1 1 -2 144 -6 317 -8
361 -14 399 -79 461 -51 49 -169 75 -280 63z m268 -540 l3 -102 -32 -26 c-81
-68 -201 -107 -283 -92 -109 21 -157 162 -91 263 34 51 85 63 250 60 l150 -2
3 -101z"/>
<path d="M6935 10453 c-40 -6 -108 -26 -173 -52 -29 -12 -55 -21 -57 -21 -2 0
-5 15 -7 33 -3 30 -6 32 -45 35 l-43 3 0 -420 0 -421 45 0 45 0 0 339 0 339
66 26 c180 72 281 66 336 -21 23 -37 23 -44 28 -358 l5 -320 43 -3 43 -3 -3
338 -3 338 -29 52 c-33 60 -82 98 -146 112 -46 11 -53 11 -105 4z"/>
<path d="M10405 10450 c-159 -24 -253 -135 -278 -330 -28 -228 50 -425 195
-491 45 -20 68 -24 153 -24 106 1 222 27 232 51 3 7 0 29 -6 47 l-12 35 -62
-20 c-34 -11 -94 -22 -134 -25 -64 -5 -78 -3 -126 21 -59 28 -95 71 -123 146
-26 67 -26 266 0 339 41 118 141 181 265 166 108 -13 101 -6 101 -101 l0 -84
45 0 45 0 0 119 0 119 -33 11 c-29 10 -193 33 -207 30 -3 -1 -27 -5 -55 -9z"/>
<path d="M12103 10450 c-112 -17 -191 -80 -232 -186 -47 -124 -47 -343 0 -471
30 -82 107 -156 185 -179 77 -22 190 -15 262 16 129 56 191 208 179 444 -8
168 -53 273 -142 331 -64 41 -160 59 -252 45z m118 -91 c65 -14 119 -61 150
-132 32 -73 39 -260 14 -353 -33 -123 -104 -184 -215 -184 -106 0 -185 62
-217 168 -23 78 -23 257 0 333 35 115 85 157 209 178 4 0 30 -4 59 -10z"/>
<path d="M13043 10449 c-43 -7 -106 -28 -195 -64 -13 -5 -17 0 -20 27 -3 31
-5 33 -45 36 l-43 3 0 -420 0 -421 45 0 45 0 0 339 0 340 78 29 c183 70 281
60 328 -35 17 -34 20 -70 24 -353 l5 -315 43 -3 42 -3 0 320 c0 298 -1 324
-20 375 -28 74 -89 130 -159 145 -57 12 -55 12 -128 0z"/>
<path d="M13850 10454 c-47 -6 -203 -43 -219 -53 -20 -13 7 -94 28 -86 61 24
178 47 251 48 141 2 187 -40 199 -183 l7 -80 -163 2 -163 2 -67 -35 c-89 -45
-126 -101 -131 -198 -6 -94 11 -144 63 -196 95 -96 250 -100 399 -10 32 19 60
35 61 35 2 0 6 -23 10 -51 l7 -51 41 6 c23 4 42 8 42 9 1 1 -2 144 -6 317 -8
361 -14 399 -79 461 -51 49 -169 75 -280 63z m268 -540 l3 -102 -32 -26 c-18
-15 -59 -41 -93 -59 -53 -27 -72 -31 -138 -32 -62 0 -82 4 -104 21 -50 37 -66
67 -67 130 -2 77 22 121 83 152 42 21 56 22 195 20 l150 -3 3 -101z"/>
</g>
</svg>
